<?xml version="1.0" encoding="UTF-8" standalone="no"?>
<svg
   xmlns:dc="http://purl.org/dc/elements/1.1/"
   xmlns:cc="http://creativecommons.org/ns#"
   xmlns:rdf="http://www.w3.org/1999/02/22-rdf-syntax-ns#"
   xmlns:svg="http://www.w3.org/2000/svg"
   xmlns="http://www.w3.org/2000/svg"
   xmlns:xlink="http://www.w3.org/1999/xlink"
   width="192"
   height="192"
   viewBox="0 0 50.799999 50.800001"
   version="1.1"
   id="svg8">
  <defs
     id="defs2">
    <linearGradient
       id="linearGradient4671">
      <stop
         style="stop-color:#390f3a;stop-opacity:1"
         offset="0"
         id="stop4667" />
      <stop
         style="stop-color:#271641;stop-opacity:1"
         offset="1"
         id="stop4669" />
    </linearGradient>
    <clipPath
       id="clipPath3731"
       clipPathUnits="userSpaceOnUse">
      <path
         id="path3729"
         d="M 0,611.833 H 792.667 V 0 H 0 Z" />
    </clipPath>
    <linearGradient
       xlink:href="#linearGradient4671"
       id="linearGradient4673"
       x1="41.330238"
       y1="-18.413712"
       x2="-15.330901"
       y2="38.247429"
       gradientUnits="userSpaceOnUse"
       gradientTransform="matrix(0.89655801,0,0,0.89655801,13.745043,16.508963)" />
  </defs>
  <metadata
     id="metadata5">
    <rdf:RDF>
      <cc:Work
         rdf:about="">
        <dc:format>image/svg+xml</dc:format>
        <dc:type
           rdf:resource="http://purl.org/dc/dcmitype/StillImage" />
        <dc:title></dc:title>
      </cc:Work>
    </rdf:RDF>
  </metadata>
  <path
     id="path4081"
     style="fill:#ffffff;fill-opacity:1;fill-rule:nonzero;stroke:none;stroke-width:0.47953856"
     d="m 39.267459,31.818044 c -0.732256,-0.916877 -1.848621,-1.458756 -3.022053,-1.458756 -0.740406,0 -1.440053,0.21819 -2.037558,0.592229 h 4.78e-4 v -1.372918 c 0,-1.769977 1.439575,-3.209552 3.210032,-3.209552 1.769498,0 3.209073,1.439575 3.209073,3.209552 v 1.998238 c -0.09447,-0.01156 -0.190857,-0.01918 -0.288684,-0.01918 -0.367325,0 -0.734172,0.08967 -1.071288,0.26039 m 3.466583,2.21355 c 9.6e-4,-0.02542 0.0019,-0.05082 0.0019,-0.07625 0,-0.660803 -0.268062,-1.259747 -0.701565,-1.69373 V 29.5786 c 0,-2.545392 -2.071606,-4.616039 -4.616038,-4.616039 -2.54587,0 -4.616038,2.070647 -4.616038,4.616039 v 2.900728 c 0.0015,-0.0048 0.0029,-0.0057 0.0044,-0.0086 -0.160646,0.3117 -0.282449,0.647377 -0.35294,1.002716 -1.262147,0.06714 -2.268218,1.115406 -2.268218,2.394335 0,1.322088 1.075604,2.397693 2.397693,2.397693 h 9.94563 c 1.170073,0 2.121957,-0.951884 2.121957,-2.121958 0,-1.100541 -0.842549,-2.008787 -1.916716,-2.111888" />
  <path
     id="path4085"
     style="fill:#ffffff;fill-opacity:1;fill-rule:nonzero;stroke:none;stroke-width:0.47953856"
     d="M 12.274665,32.647358 V 16.730514 c 1.743603,1.719145 6.291067,6.202352 8.11715,7.991989 z M 36.563293,15.450146 c -1.740244,1.685098 -6.595093,6.392249 -8.876258,8.674852 -2.096063,2.096064 -3.327998,2.094625 -5.495991,-0.0091 -1.026692,-0.99744 -6.874185,-6.762453 -8.805287,-8.665741 z M 29.514077,33.921012 H 13.391511 l 8.232239,-8.037546 c 1.176787,1.001277 2.267258,1.506711 3.349097,1.506711 1.0804,0 2.154566,-0.503995 3.299705,-1.502395 l 3.307857,3.199961 c 0.05562,-0.666559 0.222506,-1.300988 0.483375,-1.886025 l -2.571286,-2.487367 c 2.590468,-2.568409 7.176295,-7.011813 8.508932,-8.301772 v 7.333104 c 0.594627,0.05898 1.162879,0.206201 1.691811,0.429667 v -7.819356 c 0,-1.432382 -1.165279,-2.597661 -2.597659,-2.597661 H 13.181473 c -1.432861,0 -2.59814,1.165279 -2.59814,2.597661 v 16.65869 c 0,1.432383 1.165279,2.59814 2.59814,2.59814 h 15.777778 c 0.04363,-0.619564 0.239289,-1.19501 0.554826,-1.691812" />
</svg>
