<?xml version="1.0" encoding="UTF-8" standalone="no"?>
<svg
   xmlns:dc="http://purl.org/dc/elements/1.1/"
   xmlns:cc="http://creativecommons.org/ns#"
   xmlns:rdf="http://www.w3.org/1999/02/22-rdf-syntax-ns#"
   xmlns:svg="http://www.w3.org/2000/svg"
   xmlns="http://www.w3.org/2000/svg"
   version="1.1"
   id="svg17780"
   viewBox="0 0 32 32"
   height="32"
   width="32"
   fill="#bc4799">
  <path
	 class="icon"
     d="m 15.470703,4.2324219 a 1.0001001,1.0001001 0 0 0 -0.515625,0.1621093 c -2.92898,1.9024345 -4.033763,4.9287017 -4.203125,7.6601568 -0.110758,1.786301 0.179518,3.322681 0.572266,4.65625 C 10.928203,16.41885 10.655638,16.021302 10.4375,15.570312 10.014098,14.694951 9.9472656,13.783203 9.9472656,13.783203 a 1.0001001,1.0001001 0 0 0 -1.8125,-0.521484 c -1.0645883,1.496075 -1.9667968,3.225107 -1.9667968,5.486328 0,4.829935 3.9928812,8.751953 8.8750002,8.751953 4.880362,0 8.875,-3.921712 8.875,-8.751953 0,-1.660979 -0.556204,-3.12036 -1.232422,-4.400391 -6.62e-4,-0.0013 -0.0013,-0.0027 -0.002,-0.0039 a 1.0001001,1.0001001 0 0 0 -0.06641,-0.152344 c -0.185961,-0.342846 -0.482293,-1.04713 -0.59961,-1.796875 -0.117316,-0.749745 -0.06619,-1.518224 0.308594,-2.173828 A 1.0001001,1.0001001 0 0 0 21.109375,8.7871094 c -1.462898,0.5445805 -2.493685,1.3488586 -3.035156,2.4453126 -0.154547,0.31295 -0.202623,0.664323 -0.289063,1 C 16.561119,9.8364268 16.5,7.2733646 16.5,5.2324219 a 1.0001001,1.0001001 0 0 0 -1.029297,-1 z M 14.671875,7.25 c 0.116676,2.5679597 0.521445,5.648432 3.058594,8.421875 a 1.0001001,1.0001001 0 0 0 1.738281,-0.673828 c 0,-1.365233 0.106429,-2.289556 0.398438,-2.880859 0.0359,-0.07271 0.114116,-0.125323 0.15625,-0.19336 0.01045,0.260094 -0.02014,0.538259 0.01758,0.779297 0.142009,0.907554 0.444713,1.578929 0.708984,2.115234 a 1.0001001,1.0001001 0 0 0 0.109375,0.326172 c 0.62411,1.151993 1.058594,2.334084 1.058594,3.603516 0,3.731749 -3.059348,6.751953 -6.875,6.751953 -3.817899,0 -6.8750003,-3.019898 -6.8750002,-6.751953 0,-0.891526 0.1686082,-1.645434 0.4570312,-2.349609 0.010229,0.02178 0.00117,0.02116 0.011719,0.04297 0.6228181,1.287643 2.0115092,2.726563 4.2382812,2.726563 a 1.0001001,1.0001001 0 0 0 0.878906,-1.476563 C 13.264869,16.790771 12.604908,14.48628 12.748047,12.177734 12.857851,10.406813 13.389984,8.6544371 14.671875,7.25 Z"
    />
</svg>
