<?xml version="1.0" encoding="UTF-8" standalone="no"?>
<svg
   xmlns:dc="http://purl.org/dc/elements/1.1/"
   xmlns:cc="http://creativecommons.org/ns#"
   xmlns:rdf="http://www.w3.org/1999/02/22-rdf-syntax-ns#"
   xmlns:svg="http://www.w3.org/2000/svg"
   xmlns="http://www.w3.org/2000/svg"
   version="1.1"
   id="svg17780"
   viewBox="0 0 32 32"
   height="32"
   width="32"
   fill="#fff">
  <path
     class="icon"
     d="m 15.488916,4.7306711 c -0.0918,0.0027 -0.18142,0.03099 -0.25852,0.08118 -2.77701,1.803715 -3.81604,4.6454318 -3.97882,7.2711609 -0.13266,2.141359 0.42769,3.801026 0.95962,5.15994 -0.98026,-0.285468 -1.85722,-0.700218 -2.2219504,-1.454234 -0.47327,-0.978429 -0.53888,-1.978345 -0.53888,-1.978345 -0.0265,-0.472278 -0.6354902,-0.645127 -0.9079602,-0.258368 -1.03929,1.460534 -1.87502,3.063246 -1.87502,5.19685 0,4.555465 3.7624106,8.25295 8.3784606,8.25295 4.6142,0 8.37105,-3.697334 8.37105,-8.25295 0,-1.610778 -0.55019,-3.044912 -1.24014,-4.318409 -0.21203,-0.390912 -0.52804,-1.132014 -0.657,-1.9562 -0.12888,-0.824183 -0.0786,-1.719402 0.36926,-2.5024593 0.22791,-0.403899 -0.16932,-0.8735248 -0.60533,-0.7160428 -1.39294,0.5185438 -2.2817,1.2296351 -2.76083,2.1998021 -0.26646,0.539743 -0.23698,1.304107 -0.30992,1.970963 -1.86391,-2.785088 -2.21458,-5.8740429 -2.21458,-8.1938949 0.001,-0.280592 -0.22866,-0.507178 -0.50933,-0.50197 z"
    />
</svg>
