<?xml version="1.0" encoding="UTF-8" standalone="no"?>
<svg
   xmlns:dc="http://purl.org/dc/elements/1.1/"
   xmlns:cc="http://creativecommons.org/ns#"
   xmlns:rdf="http://www.w3.org/1999/02/22-rdf-syntax-ns#"
   xmlns:svg="http://www.w3.org/2000/svg"
   xmlns="http://www.w3.org/2000/svg"
   xmlns:xlink="http://www.w3.org/1999/xlink"
   width="32"
   height="32"
   viewBox="0 0 32 32"
   version="1.1"
   id="svg8">
  <defs
     id="defs2">
    <linearGradient
       id="linearGradient4671">
      <stop
         style="stop-color:#390f3a;stop-opacity:1"
         offset="0"
         id="stop4667" />
      <stop
         style="stop-color:#271641;stop-opacity:1"
         offset="1"
         id="stop4669" />
    </linearGradient>
    <clipPath
       id="clipPath3731"
       clipPathUnits="userSpaceOnUse">
      <path
         id="path3729"
         d="M 0,611.833 H 792.667 V 0 H 0 Z" />
    </clipPath>
    <linearGradient
       xlink:href="#linearGradient4671"
       id="linearGradient4673"
       x1="41.330238"
       y1="-18.413712"
       x2="-15.330901"
       y2="38.247429"
       gradientUnits="userSpaceOnUse"
       gradientTransform="matrix(0.89655801,0,0,0.89655801,13.745043,16.508963)" />
  </defs>
  <metadata
     id="metadata5">
    <rdf:RDF>
      <cc:Work
         rdf:about="">
        <dc:format>image/svg+xml</dc:format>
        <dc:type
           rdf:resource="http://purl.org/dc/dcmitype/StillImage" />
        <dc:title></dc:title>
      </cc:Work>
    </rdf:RDF>
  </metadata>
  <path
     id="path4081"
     d="m 7.6972952,7.9999997 c -0.9359943,0 -1.6972954,0.7477056 -1.6972954,1.6667094 V 20.354602 c 0,0.919004 0.7613011,1.66704 1.6972954,1.66704 H 18.003942 c 0.02848,-0.397507 0.156098,-0.766756 0.362205,-1.085499 H 7.8343396 l 5.3778084,-5.15662 c 0.76872,0.642411 1.48075,0.966473 2.187444,0.966473 0.705756,0 1.40767,-0.323256 2.155714,-0.96382 l 2.160779,2.052966 c 0.03619,-0.427659 0.145205,-0.834477 0.315626,-1.20983 l -1.679742,-1.59609 c 1.692187,-1.647868 4.687878,-4.498747 5.558403,-5.3263737 v 4.7050477 c 0.388433,0.03784 0.759684,0.132143 1.105202,0.27552 V 9.666711 c 0,-0.9190038 -0.761278,-1.6667094 -1.696957,-1.6667094 z M 7.830644,9.0854989 h 15.140295 c -1.136786,1.0811451 -4.307942,4.1012571 -5.798079,5.5657551 -1.369221,1.344816 -2.174173,1.343763 -3.590381,-0.006 C 12.91181,14.005339 9.0921111,10.306634 7.830644,9.0854989 Z M 7.1048743,9.9070841 C 8.243856,11.010072 11.214545,13.886312 12.407405,15.034527 L 7.1048743,20.118868 Z M 23.529615,15.188699 c -1.663054,0 -3.0155,1.328316 -3.0155,2.961416 v 1.861 c 0.001,-0.003 0.0019,-0.0035 0.003,-0.0053 -0.104939,0.199985 -0.184509,0.415227 -0.230549,0.643209 -0.824477,0.04307 -1.481589,0.715527 -1.481589,1.536077 0,0.848242 0.702348,1.538399 1.565983,1.538399 h 6.496846 c 0.764334,-7.1e-5 1.386396,-0.61071 1.386396,-1.36142 0,-0.706097 -0.55036,-1.288903 -1.252047,-1.35505 h -3.43e-4 c 7.05e-4,-0.01633 0.0014,-0.03241 0.0014,-0.04874 0,-0.423966 -0.175233,-0.808387 -0.458417,-1.086826 v -1.72139 c 0,-1.633101 -1.353049,-2.961417 -3.015163,-2.961417 z m 0,0.902152 c 1.155896,0 2.096303,0.923663 2.096303,2.059264 v 1.28211 c -0.06167,-0.0075 -0.124803,-0.01228 -0.188706,-0.01228 -0.239943,0 -0.479564,0.05757 -0.699776,0.167101 -0.478337,-0.588257 -1.207578,-0.935968 -1.974107,-0.935968 -0.483493,0 -0.940467,0.139793 -1.330694,0.379629 v -0.8806 c 0,-1.135603 0.940452,-2.059268 2.096976,-2.059268 z"
     style="fill:#ffffff;fill-opacity:1;fill-rule:nonzero;stroke:none;stroke-width:0.47953853" />
</svg>
