<?xml version="1.0" encoding="UTF-8" standalone="no"?>
<svg
   xmlns:dc="http://purl.org/dc/elements/1.1/"
   xmlns:cc="http://creativecommons.org/ns#"
   xmlns:rdf="http://www.w3.org/1999/02/22-rdf-syntax-ns#"
   xmlns:svg="http://www.w3.org/2000/svg"
   xmlns="http://www.w3.org/2000/svg"
   xmlns:xlink="http://www.w3.org/1999/xlink"
   id="svg8"
   version="1.1"
   viewBox="0 0 50.799999 50.800001"
   height="192"
   width="192">
  <defs
     id="defs2">
    <linearGradient
       id="linearGradient4671">
      <stop
         id="stop4667"
         offset="0"
         style="stop-color:#390f3a;stop-opacity:1" />
      <stop
         id="stop4669"
         offset="1"
         style="stop-color:#271641;stop-opacity:1" />
    </linearGradient>
    <clipPath
       clipPathUnits="userSpaceOnUse"
       id="clipPath3731">
      <path
         d="M 0,611.833 H 792.667 V 0 H 0 Z"
         id="path3729" />
    </clipPath>
    <linearGradient
       gradientTransform="matrix(0.89655801,0,0,0.89655801,15.519391,-14.752475)"
       gradientUnits="userSpaceOnUse"
       y2="38.247429"
       x2="-15.330901"
       y1="-18.413712"
       x1="41.330238"
       id="linearGradient4673"
       xlink:href="#linearGradient4671" />
  </defs>
  <metadata
     id="metadata5">
    <rdf:RDF>
      <cc:Work
         rdf:about="">
        <dc:format>image/svg+xml</dc:format>
        <dc:type
           rdf:resource="http://purl.org/dc/dcmitype/StillImage" />
        <dc:title></dc:title>
      </cc:Work>
    </rdf:RDF>
  </metadata>
  <g
     transform="translate(-1.7743477,31.261438)"
     id="layer1">
    <rect
       rx="2"
       style="opacity:1;fill:url(#linearGradient4673);fill-opacity:1;stroke-width:0.2372143"
       y="-31.261438"
       x="1.7743477"
       height="50.799999"
       width="50.799999"
       id="rect157" />
    <g
       transform="matrix(1.3593219,0,0,1.3593219,9.9457712,-19.55512)"
       id="g4677">
      <path
         d="m 22.876138,14.795411 c -0.538692,-0.674511 -1.359958,-1.07315 -2.223206,-1.07315 -0.544688,0 -1.059391,0.160514 -1.498952,0.43568 h 3.52e-4 v -1.010002 c 0,-1.302103 1.059039,-2.361142 2.361495,-2.361142 1.30175,0 2.360789,1.059039 2.360789,2.361142 v 1.470025 c -0.0695,-0.0085 -0.140406,-0.01411 -0.212373,-0.01411 -0.270227,0 -0.540102,0.06597 -0.788105,0.191559 m 2.55023,1.628422 c 7.06e-4,-0.0187 0.0014,-0.03739 0.0014,-0.05609 0,-0.486127 -0.197203,-0.926747 -0.516114,-1.246011 v -1.973791 c 0,-1.872545 -1.524,-3.3958394 -3.395839,-3.3958394 -1.872897,0 -3.395839,1.5232944 -3.395839,3.3958394 v 2.133952 c 0.0011,-0.0035 0.0021,-0.0042 0.0032,-0.0063 -0.118181,0.229306 -0.207786,0.47625 -0.259644,0.737659 -0.928512,0.04939 -1.668639,0.820561 -1.668639,1.761419 0,0.972608 0.79128,1.763889 1.763889,1.763889 h 7.316611 c 0.860777,0 1.561041,-0.700264 1.561041,-1.561042 0,-0.809625 -0.61983,-1.477786 -1.410053,-1.553633"
         style="fill:#ffffff;fill-opacity:1;fill-rule:nonzero;stroke:none;stroke-width:0.35277778"
         id="path4081" />
      <path
         d="M 3.0185947,15.405505 V 3.6961046 c 1.2827,1.264708 4.628092,4.562828 5.97147,5.879394 z M 20.886789,2.7541876 c -1.28023,1.239661 -4.851752,4.702528 -6.529916,6.38175 -1.541992,1.5419924 -2.448278,1.5409334 -4.043186,-0.0067 C 9.5583897,8.3954606 5.2566177,4.1543656 3.8359817,2.7541906 Z M 15.700956,16.342482 H 3.8402147 l 6.056136,-5.912908 c 0.8657163,0.7366 1.6679333,1.108428 2.4638003,1.108428 0.794808,0 1.58503,-0.370769 2.427464,-1.105253 l 2.433461,2.354086 c 0.04092,-0.490361 0.163689,-0.957086 0.3556,-1.387475 L 15.685081,9.5695016 c 1.905706,-1.889478 5.27932,-5.158317 6.259689,-6.107289 v 5.394678 c 0.437444,0.04339 0.855485,0.151694 1.244599,0.316089 v -5.752395 c 0,-1.053747 -0.85725,-1.910997 -1.910996,-1.910997 H 3.6856977 c -1.0541,0 -1.91135,0.85725 -1.91135,1.910997 V 15.675732 c 0,1.053748 0.85725,1.91135 1.91135,1.91135 H 15.292792 c 0.0321,-0.455789 0.176036,-0.879122 0.408164,-1.2446"
         style="fill:#bc4799;fill-opacity:1;fill-rule:nonzero;stroke:none;stroke-width:0.35277778"
         id="path4085" />
    </g>
  </g>
</svg>
