<?xml version="1.0" encoding="UTF-8" standalone="no"?>
<svg
   xmlns:dc="http://purl.org/dc/elements/1.1/"
   xmlns:cc="http://creativecommons.org/ns#"
   xmlns:rdf="http://www.w3.org/1999/02/22-rdf-syntax-ns#"
   xmlns:svg="http://www.w3.org/2000/svg"
   xmlns="http://www.w3.org/2000/svg"
   id="svg8"
   version="1.1"
   viewBox="0 0 129.87689 26.66238"
   height="26.66238mm"
   width="129.87689mm">
  <defs
     id="defs2">
    <clipPath
       clipPathUnits="userSpaceOnUse"
       id="clipPath3731">
      <path
         d="M 0,611.833 H 792.667 V 0 H 0 Z"
         id="path3729" />
    </clipPath>
  </defs>
  <metadata
     id="metadata5">
    <rdf:RDF>
      <cc:Work
         rdf:about="">
        <dc:format>image/svg+xml</dc:format>
        <dc:type
           rdf:resource="http://purl.org/dc/dcmitype/StillImage" />
        <dc:title></dc:title>
      </cc:Work>
    </rdf:RDF>
  </metadata>
  <g
     transform="translate(-26.467711,-16.399267)"
     id="layer1">
    <path
       d="m 56.577043,39.22025 c -0.582436,-0.16757 -1.006475,-0.373239 -1.271411,-0.617362 -0.265289,-0.244122 -0.397934,-0.545041 -0.397934,-0.903816 0,-0.405342 0.161925,-0.741186 0.486128,-1.006475 0.324203,-0.265289 0.745772,-0.397581 1.264356,-0.397581 0.353836,0 0.669572,0.06844 0.946502,0.204964 0.276931,0.136878 0.491773,0.325261 0.64382,0.565856 0.152047,0.240594 0.228247,0.503766 0.228247,0.788811 h -0.682978 c 0,-0.312209 -0.09878,-0.557742 -0.297039,-0.736247 -0.197908,-0.178859 -0.477661,-0.268112 -0.838552,-0.268112 -0.334786,0 -0.595842,0.07373 -0.783167,0.221192 -0.187325,0.148167 -0.281517,0.352778 -0.281517,0.614892 0,0.210608 0.08925,0.388408 0.267406,0.5334 0.1778,0.145344 0.480836,0.278341 0.909108,0.398639 0.42792,0.12065 0.762706,0.253294 1.004711,0.398286 0.2413,0.144991 0.420511,0.314325 0.537281,0.507647 0.116769,0.193675 0.17533,0.420864 0.17533,0.682625 0,0.417336 -0.162983,0.751769 -0.488244,1.002947 -0.325614,0.251178 -0.760589,0.376767 -1.305278,0.376767 -0.353836,0 -0.683683,-0.06738 -0.9906,-0.203553 -0.306564,-0.135114 -0.542925,-0.321028 -0.709083,-0.557036 -0.166158,-0.235656 -0.249414,-0.503414 -0.249414,-0.802922 h 0.682625 c 0,0.31115 0.115006,0.557036 0.345017,0.737658 0.229658,0.18027 0.536927,0.270581 0.921455,0.270581 0.358422,0 0.633236,-0.07303 0.824089,-0.219428 0.191206,-0.14605 0.286456,-0.34537 0.286456,-0.597958 0,-0.251884 -0.0882,-0.447323 -0.264937,-0.585259 -0.177094,-0.137936 -0.498122,-0.274108 -0.962377,-0.408516"
       style="fill:#ffffff;fill-opacity:1;fill-rule:nonzero;stroke:none;stroke-width:0.35277778"
       id="path3939" />
    <path
       d="m 60.840683,38.155355 c -0.26423,0 -0.485775,0.09631 -0.665339,0.288219 -0.179211,0.192617 -0.289983,0.461786 -0.332316,0.808214 h 1.916994 v -0.04939 c -0.01834,-0.332317 -0.108303,-0.589844 -0.268464,-0.772936 -0.160161,-0.182386 -0.377825,-0.274108 -0.650875,-0.274108 m 0.08114,3.431469 c -0.518583,0 -0.940858,-0.170392 -1.266119,-0.511175 -0.325614,-0.340783 -0.488245,-0.796219 -0.488245,-1.367367 v -0.120297 c 0,-0.379589 0.07267,-0.718608 0.217664,-1.017058 0.144992,-0.298097 0.347486,-0.531636 0.608542,-0.700264 0.26035,-0.168275 0.542925,-0.252942 0.847019,-0.252942 0.497417,0 0.884414,0.164042 1.160286,0.491772 0.275872,0.327731 0.413809,0.797278 0.413809,1.407937 v 0.272344 h -2.592917 c 0.0095,0.377472 0.119592,0.682272 0.330905,0.9144 0.210962,0.232481 0.479073,0.348192 0.804687,0.348192 0.230716,0 0.426861,-0.04692 0.587022,-0.141111 0.160161,-0.09454 0.300919,-0.219781 0.420864,-0.375003 l 0.399697,0.31115 c -0.320675,0.493183 -0.801511,0.739422 -1.443214,0.739422"
       style="fill:#ffffff;fill-opacity:1;fill-rule:nonzero;stroke:none;stroke-width:0.35277778"
       id="path3943" />
    <path
       d="m 64.755352,41.052507 c 0.233539,0 0.437445,-0.07091 0.61207,-0.212372 0.174272,-0.141112 0.271286,-0.318206 0.290336,-0.530225 h 0.618772 c -0.01199,0.219075 -0.08749,0.427566 -0.226483,0.625827 -0.138995,0.197909 -0.324556,0.356306 -0.557036,0.474134 -0.232481,0.11818 -0.478367,0.176741 -0.737659,0.176741 -0.521053,0 -0.935566,-0.173566 -1.243189,-0.521758 -0.307622,-0.347839 -0.461786,-0.823383 -0.461786,-1.427339 v -0.109714 c 0,-0.37218 0.06809,-0.703791 0.205317,-0.993775 0.136878,-0.289983 0.333022,-0.515055 0.588786,-0.675922 0.256117,-0.160161 0.558447,-0.240242 0.907344,-0.240242 0.428978,0 0.785989,0.128411 1.069975,0.385234 0.283986,0.257175 0.436034,0.590902 0.454731,1.001183 h -0.618772 c -0.01905,-0.24765 -0.112889,-0.45085 -0.281517,-0.609953 -0.16898,-0.159455 -0.376767,-0.23883 -0.624417,-0.23883 -0.332316,0 -0.590197,0.119944 -0.772936,0.359127 -0.182739,0.239184 -0.274108,0.585259 -0.274108,1.038225 v 0.123825 c 0,0.440973 0.09102,0.780698 0.272344,1.01847 0.181681,0.238478 0.441325,0.357364 0.778228,0.357364"
       style="fill:#ffffff;fill-opacity:1;fill-rule:nonzero;stroke:none;stroke-width:0.35277778"
       id="path3947" />
    <path
       d="m 69.41452,41.13742 c -0.254706,0.299509 -0.62865,0.449086 -1.121481,0.449086 -0.407811,0 -0.718608,-0.118533 -0.931686,-0.355247 -0.213783,-0.237066 -0.32138,-0.587728 -0.32385,-1.052336 v -2.490258 h 0.654403 v 2.472266 c 0,0.58032 0.235656,0.870303 0.70732,0.870303 0.499886,0 0.832202,-0.185914 0.997655,-0.5588 v -2.783769 h 0.654403 v 3.827286 h -0.622653 z"
       style="fill:#ffffff;fill-opacity:1;fill-rule:nonzero;stroke:none;stroke-width:0.35277778"
       id="path3951" />
    <path
       d="m 72.914044,38.275758 c -0.09913,-0.01623 -0.206375,-0.0247 -0.321734,-0.0247 -0.42933,0 -0.720725,0.182739 -0.874183,0.548217 v 2.716741 h -0.65405 v -3.827638 h 0.636764 l 0.01058,0.442383 c 0.214489,-0.341842 0.518936,-0.512939 0.912636,-0.512939 0.127353,0 0.224014,0.01658 0.289984,0.04939 z"
       style="fill:#ffffff;fill-opacity:1;fill-rule:nonzero;stroke:none;stroke-width:0.35277778"
       id="path3955" />
    <path
       d="m 74.988342,38.155355 c -0.264231,0 -0.485775,0.09631 -0.664986,0.288219 -0.179564,0.192617 -0.289984,0.461786 -0.33267,0.808214 h 1.917347 v -0.04939 c -0.0187,-0.332317 -0.108655,-0.589844 -0.268816,-0.772936 -0.160161,-0.182386 -0.377473,-0.274108 -0.650875,-0.274108 m 0.08114,3.431469 c -0.518584,0 -0.940859,-0.170392 -1.26612,-0.511175 C 73.4781,40.734866 73.315117,40.27943 73.315117,39.708282 v -0.120297 c 0,-0.379589 0.07267,-0.718608 0.217664,-1.017058 0.144991,-0.298097 0.347486,-0.531636 0.608541,-0.700264 0.260703,-0.168275 0.542925,-0.252942 0.84702,-0.252942 0.497769,0 0.884414,0.164042 1.160286,0.491772 0.275872,0.327731 0.413808,0.797278 0.413808,1.407937 v 0.272344 h -2.592917 c 0.0099,0.377472 0.119592,0.682272 0.330906,0.9144 0.210961,0.232481 0.479072,0.348192 0.804686,0.348192 0.230717,0 0.426861,-0.04692 0.587022,-0.141111 0.160161,-0.09454 0.30092,-0.219781 0.420864,-0.375003 l 0.399697,0.31115 c -0.320675,0.493183 -0.801511,0.739422 -1.443213,0.739422"
       style="fill:#ffffff;fill-opacity:1;fill-rule:nonzero;stroke:none;stroke-width:0.35277778"
       id="path3959" />
    <path
       d="m 82.19926,39.135301 h -2.232025 v 1.825272 h 2.592564 v 0.555272 H 79.288138 V 36.36529 h 3.236736 v 0.555625 h -2.557639 v 1.659113 h 2.232025 z"
       style="fill:#ffffff;fill-opacity:1;fill-rule:nonzero;stroke:none;stroke-width:0.35277778"
       id="path3963" />
    <path
       d="m 83.937996,37.688559 0.02117,0.480836 c 0.292453,-0.367594 0.674511,-0.551744 1.146175,-0.551744 0.808919,0 1.21673,0.456494 1.223786,1.36913 v 2.529064 h -0.654403 v -2.532592 c -0.0025,-0.275872 -0.06562,-0.479777 -0.189089,-0.612069 -0.124177,-0.131939 -0.316794,-0.197908 -0.578555,-0.197908 -0.21202,0 -0.398639,0.05644 -0.5588,0.169686 -0.160161,0.113241 -0.285397,0.261761 -0.375003,0.445558 v 2.727325 h -0.654403 v -3.827286 z"
       style="fill:#ffffff;fill-opacity:1;fill-rule:nonzero;stroke:none;stroke-width:0.35277778"
       id="path3967" />
    <path
       d="m 88.867251,41.052507 c 0.233539,0 0.437444,-0.07091 0.611716,-0.212372 0.174625,-0.141112 0.271639,-0.318206 0.290336,-0.530225 h 0.619125 c -0.01199,0.219075 -0.08784,0.427566 -0.226483,0.625827 -0.139347,0.197909 -0.324908,0.356306 -0.557036,0.474134 -0.232481,0.11818 -0.478367,0.176741 -0.737658,0.176741 -0.521406,0 -0.935567,-0.173566 -1.243189,-0.521758 -0.307975,-0.347839 -0.461786,-0.823383 -0.461786,-1.427339 v -0.109714 c 0,-0.37218 0.06809,-0.703791 0.204964,-0.993775 0.13723,-0.289983 0.333375,-0.515055 0.589138,-0.675922 0.255764,-0.160161 0.558095,-0.240242 0.907345,-0.240242 0.428978,0 0.785989,0.128411 1.069975,0.385234 0.283986,0.257175 0.436033,0.590902 0.45473,1.001183 h -0.619125 c -0.0187,-0.24765 -0.112536,-0.45085 -0.281163,-0.609953 -0.168981,-0.159455 -0.37712,-0.23883 -0.624417,-0.23883 -0.33267,0 -0.590197,0.119944 -0.772936,0.359127 -0.183092,0.239184 -0.274461,0.585259 -0.274461,1.038225 v 0.123825 c 0,0.440973 0.09102,0.780698 0.272697,1.01847 0.18168,0.238478 0.440972,0.357364 0.778228,0.357364"
       style="fill:#ffffff;fill-opacity:1;fill-rule:nonzero;stroke:none;stroke-width:0.35277778"
       id="path3971" />
    <path
       d="m 93.018246,38.275758 c -0.09878,-0.01623 -0.206023,-0.0247 -0.321734,-0.0247 -0.42933,0 -0.720725,0.182739 -0.87383,0.548217 v 2.716741 h -0.654403 v -3.827638 h 0.636764 l 0.01058,0.442383 c 0.214489,-0.341842 0.518936,-0.512939 0.912636,-0.512939 0.127353,0 0.224014,0.01658 0.289984,0.04939 z"
       style="fill:#ffffff;fill-opacity:1;fill-rule:nonzero;stroke:none;stroke-width:0.35277778"
       id="path3975" />
    <path
       d="m 95.124223,40.557277 0.891117,-2.868789 h 0.700616 l -1.538816,4.418189 c -0.237773,0.636764 -0.616656,0.95497 -1.135239,0.95497 l -0.124178,-0.01058 -0.243769,-0.04586 v -0.530578 l 0.176741,0.01411 c 0.221897,0 0.394406,-0.04445 0.517878,-0.134409 0.124178,-0.0896 0.226131,-0.253294 0.306564,-0.491772 l 0.144992,-0.389114 -1.365603,-3.784953 h 0.714375 z"
       style="fill:#ffffff;fill-opacity:1;fill-rule:nonzero;stroke:none;stroke-width:0.35277778"
       id="path3979" />
    <path
       d="m 99.92532,39.570417 c 0,-0.4318 -0.09207,-0.772231 -0.275872,-1.02235 -0.18415,-0.249767 -0.436386,-0.375003 -0.757061,-0.375003 -0.396169,0 -0.693208,0.176036 -0.891117,0.52705 v 1.8288 c 0.195439,0.34925 0.494948,0.523522 0.898525,0.523522 0.313267,0 0.562681,-0.124178 0.747889,-0.372886 0.184856,-0.249061 0.277636,-0.618419 0.277636,-1.109133 m 0.6544,0.07408 c 0,0.582789 -0.13299,1.051983 -0.39934,1.407936 -0.266701,0.356306 -0.627593,0.534106 -1.082676,0.534106 -0.464609,0 -0.830086,-0.147109 -1.096434,-0.442031 v 1.842911 H 97.346515 V 37.6887 h 0.597958 l 0.0321,0.424392 c 0.265994,-0.3302 0.636411,-0.4953 1.110544,-0.4953 0.460023,0 0.823384,0.173214 1.091143,0.519994 0.26811,0.346428 0.40146,0.829028 0.40146,1.446742 z"
       style="fill:#ffffff;fill-opacity:1;fill-rule:nonzero;stroke:none;stroke-width:0.35277778"
       id="path3983" />
    <path
       d="m 102.31691,36.761635 v 0.926748 h 0.71437 v 0.505883 h -0.71437 v 2.376664 c 0,0.153458 0.0321,0.268816 0.0956,0.345369 0.0635,0.07691 0.17251,0.115006 0.32526,0.115006 0.0755,0 0.17956,-0.01411 0.3115,-0.04269 v 0.527755 c -0.17215,0.04692 -0.33972,0.0702 -0.50235,0.0702 -0.29246,0 -0.51294,-0.08819 -0.66146,-0.265289 -0.14887,-0.176742 -0.2226,-0.427919 -0.2226,-0.75318 v -2.373842 h -0.69709 v -0.505883 h 0.69709 v -0.926748 z"
       style="fill:#ffffff;fill-opacity:1;fill-rule:nonzero;stroke:none;stroke-width:0.35277778"
       id="path3987" />
    <path
       d="m 105.19011,38.155355 c -0.26424,0 -0.48578,0.09631 -0.66499,0.288219 -0.17956,0.192617 -0.28998,0.461786 -0.33267,0.808214 h 1.91699 v -0.04939 c -0.0183,-0.332317 -0.1083,-0.589844 -0.26846,-0.772936 -0.16016,-0.182386 -0.37747,-0.274108 -0.65087,-0.274108 m 0.0811,3.431469 c -0.51858,0 -0.94085,-0.170392 -1.26612,-0.511175 -0.32561,-0.340783 -0.48824,-0.796219 -0.48824,-1.367367 v -0.120297 c 0,-0.379589 0.0727,-0.718608 0.21766,-1.017058 0.145,-0.298097 0.34749,-0.531636 0.60855,-0.700264 0.26035,-0.168275 0.54292,-0.252942 0.84702,-0.252942 0.49776,0 0.88441,0.164042 1.16028,0.491772 0.27587,0.327731 0.41381,0.797278 0.41381,1.407937 v 0.272344 h -2.59292 c 0.01,0.377472 0.11959,0.682272 0.33091,0.9144 0.21096,0.232481 0.47907,0.348192 0.80468,0.348192 0.23072,0 0.42687,-0.04692 0.58703,-0.141111 0.16016,-0.09454 0.30092,-0.219781 0.42086,-0.375003 l 0.3997,0.31115 c -0.32068,0.493183 -0.80151,0.739422 -1.44322,0.739422"
       style="fill:#ffffff;fill-opacity:1;fill-rule:nonzero;stroke:none;stroke-width:0.35277778"
       id="path3991" />
    <path
       d="m 108.07364,39.644676 c 0,0.433917 0.0896,0.773642 0.26917,1.018823 0.17921,0.24518 0.42686,0.367947 0.7426,0.367947 0.41486,0 0.7179,-0.186267 0.90911,-0.559153 v -1.757891 c -0.19544,-0.360892 -0.49636,-0.541162 -0.90206,-0.541162 -0.32067,0 -0.57044,0.123825 -0.74965,0.371123 -0.17956,0.24765 -0.26917,0.614538 -0.26917,1.100313 m -0.65405,-0.07408 c 0,-0.587375 0.13864,-1.059744 0.41698,-1.417108 0.27835,-0.357011 0.64276,-0.53587 1.09326,-0.53587 0.44803,0 0.80292,0.153459 1.06469,0.460023 V 36.08233 h 0.6544 v 5.433483 h -0.60114 l -0.0321,-0.410281 c -0.26176,0.321028 -0.62618,0.481189 -1.09326,0.481189 -0.44309,0 -0.80433,-0.18168 -1.08408,-0.545042 -0.2794,-0.362655 -0.41875,-0.836788 -0.41875,-1.421694 z"
       style="fill:#ffffff;fill-opacity:1;fill-rule:nonzero;stroke:none;stroke-width:0.35277778"
       id="path3995" />
    <path
       d="m 116.54412,39.135301 h -2.23203 v 1.825272 h 2.59257 v 0.555272 h -3.27202 V 36.36529 h 3.23674 v 0.555625 h -2.55729 v 1.659113 h 2.23203 z"
       style="fill:#ffffff;fill-opacity:1;fill-rule:nonzero;stroke:none;stroke-width:0.35277778"
       id="path3999" />
    <path
       d="m 118.2825,37.688559 0.018,0.424392 c 0.28046,-0.329848 0.65863,-0.4953 1.13559,-0.4953 0.53481,0 0.89923,0.205316 1.09255,0.615597 0.12771,-0.18415 0.29281,-0.332317 0.49707,-0.445558 0.2039,-0.113595 0.4452,-0.170039 0.72354,-0.170039 0.83926,0 1.26648,0.444852 1.28059,1.333852 v 2.564342 h -0.65441 v -2.525536 c 0,-0.273403 -0.0628,-0.478014 -0.18767,-0.613833 -0.12489,-0.135467 -0.33479,-0.2032 -0.62971,-0.2032 -0.24271,0 -0.4445,0.07232 -0.60502,0.217311 -0.16016,0.144991 -0.25329,0.34043 -0.2794,0.585611 v 2.539647 h -0.65793 v -2.507897 c 0,-0.556331 -0.27199,-0.834672 -0.81668,-0.834672 -0.42933,0 -0.72284,0.182739 -0.88088,0.548216 v 2.794353 h -0.65476 v -3.827286 z"
       style="fill:#ffffff;fill-opacity:1;fill-rule:nonzero;stroke:none;stroke-width:0.35277778"
       id="path4003" />
    <path
       d="m 125.26468,41.017194 c 0.20496,0 0.39969,-0.05292 0.58349,-0.159103 0.18415,-0.106186 0.3175,-0.244122 0.3997,-0.414161 v -0.785284 h -0.51294 c -0.80151,0 -1.20262,0.23495 -1.20262,0.704145 0,0.205317 0.0684,0.36583 0.20532,0.480836 0.13688,0.115711 0.31256,0.173567 0.52705,0.173567 m 1.08585,0.498827 c -0.0378,-0.07549 -0.0681,-0.209902 -0.0921,-0.403225 -0.30409,0.316089 -0.6671,0.473781 -1.08938,0.473781 -0.37747,0 -0.68685,-0.106539 -0.92851,-0.319969 -0.24165,-0.213431 -0.36265,-0.484012 -0.36265,-0.811742 0,-0.398639 0.15134,-0.708025 0.45438,-0.928864 0.30338,-0.220133 0.72989,-0.330553 1.27882,-0.330553 h 0.63676 V 38.89453 c 0,-0.228247 -0.0681,-0.410633 -0.20496,-0.5461 -0.13724,-0.13582 -0.33867,-0.203553 -0.60502,-0.203553 -0.23354,0 -0.42898,0.05891 -0.58702,0.176742 -0.15805,0.11818 -0.23707,0.260703 -0.23707,0.427919 h -0.65793 c 0,-0.190853 0.0677,-0.375003 0.2032,-0.553508 0.13547,-0.1778 0.31927,-0.318558 0.5521,-0.422628 0.23248,-0.103717 0.48754,-0.155575 0.76588,-0.155575 0.44097,0 0.78599,0.11042 1.03611,0.330553 0.25012,0.220839 0.37959,0.524228 0.38946,0.910872 v 1.761772 c 0,0.35172 0.0448,0.63112 0.13406,0.8382 v 0.0568 z"
       style="fill:#ffffff;fill-opacity:1;fill-rule:nonzero;stroke:none;stroke-width:0.35277778"
       id="path4007" />
    <path
       id="path4009"
       style="fill:#ffffff;fill-opacity:1;fill-rule:nonzero;stroke:none;stroke-width:0.35277775"
       d="m 128.60477,41.515916 h -0.6544 V 37.68863 h 0.6544 z m -0.70767,-4.842581 c 0,-0.106186 0.0328,-0.195792 0.0974,-0.268817 0.0646,-0.07302 0.16086,-0.109713 0.28822,-0.109713 0.12735,0 0.22366,0.03669 0.28998,0.109713 0.066,0.07302 0.0991,0.162631 0.0991,0.268817 0,0.106186 -0.0332,0.194381 -0.0991,0.265289 -0.0663,0.07056 -0.16263,0.106186 -0.28998,0.106186 -0.12736,0 -0.22366,-0.03563 -0.28822,-0.106186 -0.0646,-0.07091 -0.0974,-0.159103 -0.0974,-0.265289" />
    <path
       id="path4011"
       style="fill:#ffffff;fill-opacity:1;fill-rule:nonzero;stroke:none;stroke-width:0.35277775"
       d="m 130.32457,41.515916 h -0.65441 v -5.433484 h 0.65441 z" />
    <path
       d="m 134.8572,39.22025 c -0.58244,-0.16757 -1.00648,-0.373239 -1.27141,-0.617362 -0.26529,-0.244122 -0.39794,-0.545041 -0.39794,-0.903816 0,-0.405342 0.16193,-0.741186 0.48613,-1.006475 0.3242,-0.265289 0.74577,-0.397581 1.26436,-0.397581 0.35383,0 0.66957,0.06844 0.9465,0.204964 0.27693,0.136878 0.49177,0.325261 0.64382,0.565856 0.15205,0.240594 0.22825,0.503766 0.22825,0.788811 h -0.68298 c 0,-0.312209 -0.0988,-0.557742 -0.29704,-0.736247 -0.19791,-0.178859 -0.47731,-0.268112 -0.83855,-0.268112 -0.33479,0 -0.59584,0.07373 -0.78317,0.221192 -0.18732,0.148167 -0.28116,0.352778 -0.28116,0.614892 0,0.210608 0.0892,0.388408 0.26705,0.5334 0.1778,0.145344 0.48084,0.278341 0.90911,0.398639 0.42792,0.12065 0.76306,0.253294 1.00471,0.398286 0.2413,0.144991 0.42086,0.314325 0.53763,0.507647 0.11642,0.193675 0.17498,0.420864 0.17498,0.682625 0,0.417336 -0.16263,0.751769 -0.48824,1.002947 -0.32562,0.251178 -0.76059,0.376767 -1.30528,0.376767 -0.35384,0 -0.68369,-0.06738 -0.9906,-0.203553 -0.30657,-0.135114 -0.54293,-0.321028 -0.70909,-0.557036 -0.16615,-0.235656 -0.24941,-0.503414 -0.24941,-0.802922 h 0.68263 c 0,0.31115 0.115,0.557036 0.34501,0.737658 0.23001,0.18027 0.53693,0.270581 0.92146,0.270581 0.35842,0 0.63323,-0.07303 0.82409,-0.219428 0.1912,-0.14605 0.28645,-0.34537 0.28645,-0.597958 0,-0.251884 -0.0882,-0.447323 -0.26493,-0.585259 -0.17675,-0.137936 -0.49813,-0.274108 -0.96238,-0.408516"
       style="fill:#ffffff;fill-opacity:1;fill-rule:nonzero;stroke:none;stroke-width:0.35277778"
       id="path4015" />
    <path
       d="m 139.12118,38.155355 c -0.26423,0 -0.48577,0.09631 -0.66498,0.288219 -0.17957,0.192617 -0.28998,0.461786 -0.33232,0.808214 h 1.917 v -0.04939 c -0.0187,-0.332317 -0.10866,-0.589844 -0.26882,-0.772936 -0.16016,-0.182386 -0.37747,-0.274108 -0.65088,-0.274108 m 0.0811,3.431469 c -0.51858,0 -0.94085,-0.170392 -1.26612,-0.511175 -0.32526,-0.340783 -0.48824,-0.796219 -0.48824,-1.367367 v -0.120297 c 0,-0.379589 0.0727,-0.718608 0.21766,-1.017058 0.145,-0.298097 0.34749,-0.531636 0.60855,-0.700264 0.2607,-0.168275 0.54292,-0.252942 0.84701,-0.252942 0.49777,0 0.88442,0.164042 1.16029,0.491772 0.27587,0.327731 0.41381,0.797278 0.41381,1.407937 v 0.272344 h -2.59292 c 0.01,0.377472 0.11959,0.682272 0.33091,0.9144 0.21096,0.232481 0.47907,0.348192 0.80468,0.348192 0.23072,0 0.42687,-0.04692 0.58703,-0.141111 0.16051,-0.09454 0.30092,-0.219781 0.42086,-0.375003 l 0.40005,0.31115 c -0.32103,0.493183 -0.80186,0.739422 -1.44357,0.739422"
       style="fill:#ffffff;fill-opacity:1;fill-rule:nonzero;stroke:none;stroke-width:0.35277778"
       id="path4019" />
    <path
       d="m 143.35798,38.275758 c -0.0991,-0.01623 -0.20638,-0.0247 -0.32209,-0.0247 -0.42898,0 -0.72037,0.182739 -0.87383,0.548217 v 2.716741 h -0.65405 v -3.827638 h 0.63677 l 0.0106,0.442383 c 0.21449,-0.341842 0.51894,-0.512939 0.91264,-0.512939 0.12735,0 0.22401,0.01658 0.28998,0.04939 z"
       style="fill:#ffffff;fill-opacity:1;fill-rule:nonzero;stroke:none;stroke-width:0.35277778"
       id="path4023" />
    <path
       d="m 145.4526,40.62808 0.94826,-2.939697 h 0.66852 l -1.37266,3.827638 h -0.49883 l -1.38642,-3.827638 h 0.66852 z"
       style="fill:#ffffff;fill-opacity:1;fill-rule:nonzero;stroke:none;stroke-width:0.35277778"
       id="path4027" />
    <path
       id="path4029"
       style="fill:#ffffff;fill-opacity:1;fill-rule:nonzero;stroke:none;stroke-width:0.35277775"
       d="m 148.40478,41.515916 h -0.6544 V 37.68863 h 0.6544 z m -0.70767,-4.842581 c 0,-0.106186 0.0328,-0.195792 0.0974,-0.268817 0.0649,-0.07302 0.16087,-0.109713 0.28858,-0.109713 0.127,0 0.22366,0.03669 0.28998,0.109713 0.066,0.07302 0.0988,0.162631 0.0988,0.268817 0,0.106186 -0.0328,0.194381 -0.0988,0.265289 -0.0663,0.07056 -0.16298,0.106186 -0.28998,0.106186 -0.12771,0 -0.22367,-0.03563 -0.28858,-0.106186 -0.0646,-0.07091 -0.0974,-0.159103 -0.0974,-0.265289" />
    <path
       d="m 150.9675,41.052507 c 0.23354,0 0.43745,-0.07091 0.61172,-0.212372 0.17462,-0.141112 0.27164,-0.318206 0.29033,-0.530225 h 0.61913 c -0.012,0.219075 -0.0875,0.427566 -0.22648,0.625827 -0.139,0.197909 -0.32456,0.356306 -0.55704,0.474134 -0.23248,0.11818 -0.47837,0.176741 -0.73766,0.176741 -0.52105,0 -0.93557,-0.173566 -1.24319,-0.521758 -0.30762,-0.347839 -0.46178,-0.823383 -0.46178,-1.427339 v -0.109714 c 0,-0.37218 0.0681,-0.703791 0.20496,-0.993775 0.13723,-0.289983 0.33338,-0.515055 0.58914,-0.675922 0.25576,-0.160161 0.55809,-0.240242 0.90734,-0.240242 0.42898,0 0.78599,0.128411 1.06998,0.385234 0.28398,0.257175 0.43603,0.590902 0.45473,1.001183 h -0.61913 c -0.0187,-0.24765 -0.11253,-0.45085 -0.28116,-0.609953 -0.16898,-0.159455 -0.37677,-0.23883 -0.62442,-0.23883 -0.33231,0 -0.59019,0.119944 -0.77293,0.359127 -0.18309,0.239184 -0.27411,0.585259 -0.27411,1.038225 v 0.123825 c 0,0.440973 0.0907,0.780698 0.27234,1.01847 0.18168,0.238478 0.44133,0.357364 0.77823,0.357364"
       style="fill:#ffffff;fill-opacity:1;fill-rule:nonzero;stroke:none;stroke-width:0.35277778"
       id="path4033" />
    <path
       d="m 154.77055,38.155355 c -0.26423,0 -0.48577,0.09631 -0.66498,0.288219 -0.17957,0.192617 -0.28999,0.461786 -0.33267,0.808214 h 1.91734 v -0.04939 c -0.0187,-0.332317 -0.10865,-0.589844 -0.26881,-0.772936 -0.16016,-0.182386 -0.37748,-0.274108 -0.65088,-0.274108 m 0.0811,3.431469 c -0.51858,0 -0.94086,-0.170392 -1.26612,-0.511175 -0.32526,-0.340783 -0.48824,-0.796219 -0.48824,-1.367367 v -0.120297 c 0,-0.379589 0.0727,-0.718608 0.21766,-1.017058 0.14499,-0.298097 0.34749,-0.531636 0.60854,-0.700264 0.2607,-0.168275 0.54293,-0.252942 0.84702,-0.252942 0.49777,0 0.88442,0.164042 1.16029,0.491772 0.27587,0.327731 0.41381,0.797278 0.41381,1.407937 v 0.272344 h -2.59292 c 0.01,0.377472 0.11959,0.682272 0.3309,0.9144 0.21097,0.232481 0.47908,0.348192 0.80469,0.348192 0.23072,0 0.42686,-0.04692 0.58702,-0.141111 0.16016,-0.09454 0.30092,-0.219781 0.42087,-0.375003 l 0.39969,0.31115 c -0.32067,0.493183 -0.80151,0.739422 -1.44321,0.739422"
       style="fill:#ffffff;fill-opacity:1;fill-rule:nonzero;stroke:none;stroke-width:0.35277778"
       id="path4037" />
    <path
       d="m 56.960833,25.38868 h 3.363736 c 1.000831,0 1.76777,-0.236008 2.30117,-0.708025 0.532341,-0.472017 0.799041,-1.153936 0.799041,-2.046464 0,-0.845961 -0.2667,-1.523294 -0.799041,-2.030942 -0.5334,-0.508 -1.264356,-0.771877 -2.193925,-0.79128 h -3.470981 z m 0,1.530703 v 5.557308 H 55.088994 V 18.281266 h 5.235575 c 1.553281,0 2.770364,0.396522 3.65125,1.189567 0.880533,0.793044 1.321153,1.842558 1.321153,3.148894 0,1.378303 -0.430742,2.439106 -1.291872,3.183467 -0.861484,0.744008 -2.094795,1.116189 -3.700286,1.116189 z"
       style="fill:#bc4799;fill-opacity:1;fill-rule:nonzero;stroke:none;stroke-width:0.35277778"
       id="path4041" />
    <path
       d="m 72.205384,23.54591 c -0.27305,-0.04516 -0.568678,-0.06809 -0.887236,-0.06809 -1.182864,0 -1.985786,0.503766 -2.408061,1.5113 v 7.487355 H 67.106334 V 21.927718 h 1.755069 l 0.02928,1.218495 c 0.590903,-0.94227 1.429455,-1.413581 2.514952,-1.413581 0.351367,0 0.617362,0.04551 0.799748,0.136525 z"
       style="fill:#bc4799;fill-opacity:1;fill-rule:nonzero;stroke:none;stroke-width:0.35277778"
       id="path4045" />
    <path
       id="path4047"
       style="fill:#bc4799;fill-opacity:1;fill-rule:nonzero;stroke:none;stroke-width:0.35277775"
       d="m 75.642953,32.476691 h -1.8034 V 21.92793 h 1.8034 z M 73.692797,19.129697 c 0,-0.292453 0.08926,-0.539398 0.268464,-0.741186 0.178509,-0.201437 0.443442,-0.302331 0.794459,-0.302331 0.35101,0 0.617358,0.100894 0.799744,0.302331 0.18168,0.201788 0.272697,0.448733 0.272697,0.741186 0,0.292452 -0.09102,0.535869 -0.272697,0.730955 -0.182386,0.195086 -0.448734,0.292453 -0.799744,0.292453 -0.351017,0 -0.61595,-0.09737 -0.794459,-0.292453 -0.179208,-0.195086 -0.268464,-0.438503 -0.268464,-0.730955" />
    <path
       d="m 81.829585,30.029577 2.613025,-8.101894 h 1.842558 L 82.502332,32.476797 H 81.12791 L 77.305915,21.927683 h 1.842559 z"
       style="fill:#bc4799;fill-opacity:1;fill-rule:nonzero;stroke:none;stroke-width:0.35277778"
       id="path4051" />
    <path
       d="m 90.889165,31.102057 c 0.565855,0 1.101725,-0.146403 1.609019,-0.438856 0.506589,-0.292452 0.873831,-0.672394 1.101725,-1.140883 v -2.163939 h -1.413933 c -2.210153,0 -3.315053,0.646642 -3.315053,1.939925 0,0.565503 0.188383,1.007534 0.565856,1.326092 0.376766,0.318558 0.860777,0.477661 1.452386,0.477661 m 2.992966,1.374422 c -0.104069,-0.207433 -0.188383,-0.578203 -0.252941,-1.11125 -0.838553,0.871008 -1.839736,1.306336 -3.003198,1.306336 -1.039988,0 -1.893005,-0.293864 -2.559402,-0.882297 -0.666397,-0.58808 -0.999067,-1.333853 -0.999067,-2.237669 0,-1.098198 0.417689,-1.951214 1.252714,-2.55905 0.835025,-0.607484 2.009775,-0.911578 3.524603,-0.911578 h 1.755069 v -0.828675 c 0,-0.630414 -0.189089,-1.132417 -0.565855,-1.506361 -0.376767,-0.373592 -0.932392,-0.560564 -1.667228,-0.560564 -0.643467,0 -1.182864,0.162631 -1.618192,0.487186 -0.43568,0.325261 -0.653344,0.718608 -0.653344,1.180042 h -1.813631 c 0,-0.526697 0.186972,-1.03505 0.560917,-1.525764 0.373592,-0.491067 0.880533,-0.879122 1.520825,-1.165225 0.639939,-0.28575 1.34373,-0.428978 2.110669,-0.428978 1.215672,0 2.16782,0.304095 2.856795,0.911578 0.688975,0.607836 1.046691,1.444625 1.072444,2.510719 v 4.854928 c 0,0.968728 0.123472,1.738842 0.370769,2.310694 v 0.155928 z"
       style="fill:#bc4799;fill-opacity:1;fill-rule:nonzero;stroke:none;stroke-width:0.35277778"
       id="path4055" />
    <path
       d="m 100.44069,19.373219 v 2.554464 h 1.96956 v 1.394178 h -1.96956 v 6.550377 c 0,0.422981 0.0879,0.740128 0.26318,0.951795 0.17568,0.211314 0.47448,0.316794 0.89711,0.316794 0.20814,0 0.49389,-0.0388 0.85795,-0.116769 v 1.453797 c -0.47448,0.129469 -0.93591,0.193675 -1.3843,0.193675 -0.80609,0 -1.413928,-0.243417 -1.823151,-0.730956 -0.409575,-0.487538 -0.614186,-1.180041 -0.614186,-2.076802 v -6.541911 h -1.920875 v -1.394178 h 1.920875 v -2.554464 z"
       style="fill:#bc4799;fill-opacity:1;fill-rule:nonzero;stroke:none;stroke-width:0.35277778"
       id="path4059" />
    <path
       d="m 108.25864,23.21451 c -0.72778,0 -1.33915,0.264937 -1.83304,0.794809 -0.49424,0.529872 -0.79939,1.272116 -0.91651,2.227439 h 5.28461 v -0.136173 c -0.0522,-0.916516 -0.29916,-1.626658 -0.74119,-2.130425 -0.44203,-0.503413 -1.03999,-0.75565 -1.79387,-0.75565 m 0.22436,9.457267 c -1.43016,0 -2.59362,-0.469547 -3.49073,-1.408994 -0.89676,-0.939095 -1.34514,-2.194984 -1.34514,-3.76802 v -0.331611 c 0,-1.046339 0.19967,-1.980847 0.59937,-2.803172 0.40005,-0.821972 0.95885,-1.465439 1.6771,-1.9304 0.7179,-0.464608 1.49648,-0.696736 2.33504,-0.696736 1.37124,0 2.43734,0.451555 3.19757,1.355019 0.76095,0.903464 1.14089,2.1971 1.14089,3.880556 v 0.750711 h -7.14657 c 0.0261,1.039989 0.3302,1.879953 0.91157,2.519891 0.58173,0.640645 1.32116,0.960614 2.21827,0.960614 0.63676,0 1.17616,-0.129822 1.61854,-0.390172 0.44168,-0.259644 0.82868,-0.604661 1.15994,-1.033286 l 1.10172,0.857956 c -0.88406,1.358547 -2.21015,2.037644 -3.97757,2.037644"
       style="fill:#bc4799;fill-opacity:1;fill-rule:nonzero;stroke:none;stroke-width:0.35277778"
       id="path4063" />
    <path
       id="path4065"
       style="fill:#ffffff;fill-opacity:1;fill-rule:nonzero;stroke:none;stroke-width:0.35277775"
       d="m 117.87504,27.533569 h -3.45828 v -2.271536 h 3.45828 z" />
    <path
       d="m 123.70748,18.281125 3.64631,10.295819 3.62656,-10.295819 h 3.84175 V 32.47655 h -2.93476 v -3.880203 l 0.29245,-6.697839 -3.83187,10.578042 h -2.00801 l -3.822,-10.568517 0.29246,6.688314 v 3.880203 h -2.92488 V 18.281125 Z"
       style="fill:#ffffff;fill-opacity:1;fill-rule:nonzero;stroke:none;stroke-width:0.35277778"
       id="path4069" />
    <path
       d="m 140.86959,30.517046 c 0.41593,0 0.79939,-0.09278 1.15041,-0.277989 0.35101,-0.184856 0.61066,-0.433917 0.77999,-0.745773 v -1.813277 h -1.05304 c -1.41076,0 -2.16147,0.487539 -2.25213,1.462616 l -0.01,0.165453 c 0,0.351014 0.12347,0.640292 0.37041,0.867481 0.24695,0.227894 0.58491,0.341489 1.01424,0.341489 m 2.32974,1.95968 c -0.12982,-0.253647 -0.22401,-0.568678 -0.28222,-0.945797 -0.68262,0.760589 -1.56986,1.14053 -2.66171,1.14053 -1.03363,0 -1.89018,-0.29845 -2.56892,-0.896761 -0.67945,-0.597958 -1.01918,-1.351844 -1.01918,-2.262011 0,-1.117952 0.41452,-1.975555 1.24319,-2.573866 0.82868,-0.597959 2.026,-0.899936 3.59269,-0.906639 h 1.29681 v -0.604661 c 0,-0.487539 -0.12524,-0.877359 -0.37536,-1.169811 -0.25047,-0.292453 -0.64523,-0.438503 -1.18462,-0.438503 -0.47449,0 -0.84702,0.113594 -1.11619,0.340783 -0.26988,0.227895 -0.40499,0.540103 -0.40499,0.936272 h -2.81728 c 0,-0.611011 0.18838,-1.176161 0.56515,-1.696508 0.37712,-0.519642 0.91016,-0.927805 1.59914,-1.223786 0.68897,-0.295275 1.46226,-0.443089 2.32057,-0.443089 1.29963,0 2.33151,0.32632 3.09527,0.979664 0.76377,0.653344 1.14547,1.571272 1.14547,2.754489 v 4.572352 c 0.007,1.000831 0.1464,1.758245 0.41945,2.271537 v 0.165805 z"
       style="fill:#ffffff;fill-opacity:1;fill-rule:nonzero;stroke:none;stroke-width:0.35277778"
       id="path4073" />
    <path
       id="path4075"
       style="fill:#ffffff;fill-opacity:1;fill-rule:nonzero;stroke:none;stroke-width:0.35277775"
       d="M 150.76521,32.476691 H 147.9377 V 21.92793 h 2.82751 z m -2.99296,-13.278908 c 0,-0.422628 0.14111,-0.770114 0.42404,-1.043164 0.28257,-0.27305 0.66781,-0.409575 1.15499,-0.409575 0.48119,0 0.86466,0.136525 1.15076,0.409575 0.28611,0.27305 0.42898,0.620536 0.42898,1.043164 0,0.428978 -0.14464,0.779991 -0.43391,1.053041 -0.28928,0.272698 -0.67134,0.409575 -1.14583,0.409575 -0.47413,0 -0.85619,-0.136877 -1.14547,-0.409575 -0.28928,-0.27305 -0.43356,-0.624063 -0.43356,-1.053041" />
    <path
       id="path4077"
       style="fill:#ffffff;fill-opacity:1;fill-rule:nonzero;stroke:none;stroke-width:0.35277775"
       d="m 155.97892,32.476691 h -2.82751 V 17.501274 h 2.82751 z" />
    <path
       d="m 47.569501,29.68509 c -0.538692,-0.674511 -1.359958,-1.07315 -2.223206,-1.07315 -0.544688,0 -1.059391,0.160514 -1.498952,0.43568 h 3.52e-4 v -1.010002 c 0,-1.302103 1.059039,-2.361142 2.361495,-2.361142 1.30175,0 2.360789,1.059039 2.360789,2.361142 v 1.470025 c -0.0695,-0.0085 -0.140406,-0.01411 -0.212373,-0.01411 -0.270227,0 -0.540102,0.06597 -0.788105,0.191559 m 2.55023,1.628422 c 7.06e-4,-0.0187 0.0014,-0.03739 0.0014,-0.05609 0,-0.486127 -0.197203,-0.926747 -0.516114,-1.246011 v -1.973791 c 0,-1.872545 -1.524,-3.395839 -3.395839,-3.395839 -1.872897,0 -3.395839,1.523294 -3.395839,3.395839 v 2.133952 c 0.0011,-0.0035 0.0021,-0.0042 0.0032,-0.0063 -0.118181,0.229306 -0.207786,0.47625 -0.259644,0.737659 -0.928512,0.04939 -1.668639,0.820561 -1.668639,1.761419 0,0.972608 0.79128,1.763889 1.763889,1.763889 h 7.316611 c 0.860777,0 1.561041,-0.700264 1.561041,-1.561042 0,-0.809625 -0.61983,-1.477786 -1.410053,-1.553633"
       style="fill:#ffffff;fill-opacity:1;fill-rule:nonzero;stroke:none;stroke-width:0.35277778"
       id="path4081" />
    <path
       d="m 27.711958,30.295184 v -11.7094 c 1.2827,1.264708 4.628092,4.562828 5.97147,5.879394 z M 45.580152,17.643867 c -1.28023,1.239661 -4.851752,4.702528 -6.529916,6.38175 -1.541992,1.541992 -2.448278,1.540933 -4.043186,-0.0067 C 34.251753,23.28514 29.949981,19.044045 28.529345,17.64387 Z M 40.394319,31.232161 H 28.533578 l 6.056136,-5.912908 c 0.865716,0.7366 1.667933,1.108428 2.4638,1.108428 0.794808,0 1.58503,-0.370769 2.427464,-1.105253 l 2.433461,2.354086 c 0.04092,-0.490361 0.163689,-0.957086 0.3556,-1.387475 l -1.891595,-1.829858 c 1.905706,-1.889478 5.27932,-5.158317 6.259689,-6.107289 v 5.394678 c 0.437444,0.04339 0.855485,0.151694 1.244599,0.316089 v -5.752395 c 0,-1.053747 -0.85725,-1.910997 -1.910996,-1.910997 H 28.379061 c -1.0541,0 -1.91135,0.85725 -1.91135,1.910997 v 12.255147 c 0,1.053748 0.85725,1.91135 1.91135,1.91135 h 11.607094 c 0.0321,-0.455789 0.176036,-0.879122 0.408164,-1.2446"
       style="fill:#bc4799;fill-opacity:1;fill-rule:nonzero;stroke:none;stroke-width:0.35277778"
       id="path4085" />
  </g>
</svg>
