<?xml version="1.0" encoding="UTF-8" standalone="no"?>
<svg
   xmlns:dc="http://purl.org/dc/elements/1.1/"
   xmlns:cc="http://creativecommons.org/ns#"
   xmlns:rdf="http://www.w3.org/1999/02/22-rdf-syntax-ns#"
   xmlns:svg="http://www.w3.org/2000/svg"
   xmlns="http://www.w3.org/2000/svg"
   version="1.1"
   viewBox="0 0 24 24"
   height="24"
   width="24">
  <path
     d="m 12,3 c -4.9587181,0 -9,4.0412819 -9,9 0,4.958718 4.0412819,9 9,9 4.958718,0 9,-4.041282 9,-9 0,-4.9587181 -4.041282,-9 -9,-9 z m 0,2 c 3.877838,0 7,3.1221621 7,7 0,3.877838 -3.122162,7 -7,7 C 8.1221621,19 5,15.877838 5,12 5,8.1221621 8.1221621,5 12,5 Z m 0,1 c -3.3018639,0 -6,2.6981361 -6,6 0,3.301864 2.6981361,6 6,6 3.301864,0 6,-2.698136 6,-6 0,-3.3018639 -2.698136,-6 -6,-6 z m 0,2 c 2.220984,0 4,1.7790164 4,4 0,2.220984 -1.779016,4 -4,4 C 9.7790164,16 8,14.220984 8,12 8,9.7790164 9.7790164,8 12,8 Z"
     style="color:#000000;fill:#000000;fill-opacity:1" />
</svg>
