<?xml version="1.0" encoding="UTF-8" standalone="no"?>
<svg
   xmlns:dc="http://purl.org/dc/elements/1.1/"
   xmlns:cc="http://creativecommons.org/ns#"
   xmlns:rdf="http://www.w3.org/1999/02/22-rdf-syntax-ns#"
   xmlns:svg="http://www.w3.org/2000/svg"
   xmlns="http://www.w3.org/2000/svg"
   version="1.1"
   viewBox="0 0 24 24"
   width="24"
   height="24">
  <path
     d="m 12,3 c -4.9587181,0 -9,4.0412819 -9,9 0,4.958718 4.0412819,9 9,9 4.958718,0 9,-4.041282 9,-9 0,-0.598129 -0.06171,-1.182097 -0.173828,-1.748047 l -1.830078,1.830078 C 18.951873,15.921282 15.850103,19 12,19 8.1221621,19 5,15.877838 5,12 5,8.1446263 8.0870032,5.039791 11.933594,5.0039062 l 1.828125,-1.828125 C 13.191585,3.0619259 12.602868,3 12,3 Z m 6.585938,1 -2.125,2.125 -2.117188,-2.1171875 -1.414062,1.4140625 2.117187,2.1171875 -2.117187,2.1171875 1.414062,1.414062 2.117188,-2.117187 2.125,2.125 L 20,9.6640625 l -2.125,-2.125 2.125,-2.125 z M 12,6 c -3.3018639,0 -6,2.6981361 -6,6 0,3.301864 2.6981361,6 6,6 3.301864,0 6,-2.698136 6,-6 0,-0.03364 -0.0053,-0.0661 -0.0059,-0.09961 l -1.533203,-1.533203 -0.607422,0.607421 C 15.940127,11.30356 16,11.642587 16,12 c 0,2.220984 -1.779016,4 -4,4 -2.2209836,0 -4,-1.779016 -4,-4 0,-2.2209836 1.7790164,-4 4,-4 0.357413,0 0.696441,0.059914 1.025391,0.1464844 L 13.632812,7.5390625 12.099609,6.0058594 C 12.066098,6.0053015 12.033638,6 12,6 Z"
     style="fill:#000000;fill-opacity:1" />
</svg>
